{"title":"The Hitcher 2007 720p BRRip H264 AAC-Rx(Phoenix-RG)","uid":5807097,"size":1459889807,"categoryP":"video","categoryS":"hd___movies","magnet":"?xt=urn:btih:b46d41dc8ce094a05126bd7cc57472e5afe663eb&amp;dn=The+Hitcher+2007+720p+BRRip+H264+AAC-Rx%28Phoenix-RG%29&amp;tr=udp%3A%2F%2Ftracker.openbittorrent.com%3A80&amp;tr=udp%3A%2F%2Fopen.demonii.com%3A1337&amp;tr=udp%3A%2F%2Ftracker.coppersurfer.tk%3A6969&amp;tr=udp%3A%2F%2Fexodus.desync.com%3A6969","seeders":0,"leechers":0,"uploader":"rev-x","files":7,"time":1283486936,"description":"The Hitcher 2007 720p BRRip H264 AAC-Rx(Phoenix-RG).mp4\n      Format : MPEG-4 / AVC\n      File size : 1.36 GiB\n      Duration : 1h 23mn\n      Format profile : &lt;a class=&quot;__cf_email__&quot; href=&quot;/cdn-cgi/l/email-protection&quot; data-cfemail=&quot;440c2d232c0408706a75&quot;&gt;[email&amp;#160;protected]&lt;/a&gt;&lt;script data-cfhash='f9e31' type=&quot;text/javascript&quot;&gt;\n/* &lt;![CDATA[ */!function(){try{var t=&quot;currentScript&quot;in document?document.currentScript:function(){for(var t=document.getElementsByTagName(&quot;script&quot;),e=t.length;e--;)if(t[e].getAttribute(&quot;data-cfhash&quot;))return t[e]}();if(t&amp;&amp;t.previousSibling){var e,r,n,i,c=t.previousSibling,a=c.getAttribute(&quot;data-cfemail&quot;);if(a){for(e=&quot;&quot;,r=parseInt(a.substr(0,2),16),n=2;a.length-n;n+=2)i=parseInt(a.substr(n,2),16)^r,e+=String.fromCharCode(i);e=document.createTextNode(e),c.parentNode.replaceChild(e,c)}t.parentNode.removeChild(t);}}catch(u){}}()/* ]]&gt; */&lt;/script&gt;\n      Bit rate : 2 000 Kbps\n      Width : 1 280 pixels\n      Height : 536 pixels\n      Display aspect ratio : 2.35\n      Frame rate : 23.976 fps\n      Resolution : 24 bits\n      Colorimetry : 4:2:0\n      Scan type : Progressive\n      Bits/(Pixel*Frame) : 0.122\n      Stream size : 1.17 GiB (86%)\n      \n     \nVIDEO:\n     \n      Format : AAC LC\n      Format/Info : Advanced Audio Codec\n      Duration : 1h 23mn\n      Bit rate : 321 Kbps\n      Channel(s) : 6 channels\n      Channel positions : Front: L C R, Rear: L R, LFE\n      Sampling rate : 48.0 KHz\n      Resolution : 16 bits\n      Stream size : 192 MiB (14%)\n\nSCREEN:\n &lt;a href=&quot;\nhttp://img101.imageshack.us/img101/8272/vlcsnap2010090209h30m50.jpg&quot; rel=&quot;nofollow&quot; target=&quot;_NEW&quot;&gt;\nhttp://img101.imageshack.us/img101/8272/vlcsnap2010090209h30m50.jpg&lt;/a&gt;\n &lt;a href=&quot;\nhttp://img819.imageshack.us/img819/5286/vlcsnap2010090209h29m30.jpg&quot; rel=&quot;nofollow&quot; target=&quot;_NEW&quot;&gt;\nhttp://img819.imageshack.us/img819/5286/vlcsnap2010090209h29m30.jpg&lt;/a&gt;\n &lt;a href=&quot;\nhttp://img507.imageshack.us/img507/3483/vlcsnap2010090209h31m05.jpg&quot; rel=&quot;nofollow&quot; target=&quot;_NEW&quot;&gt;\nhttp://img507.imageshack.us/img507/3483/vlcsnap2010090209h31m05.jpg&lt;/a&gt;","torrent":{"xt":"urn:btih:b46d41dc8ce094a05126bd7cc57472e5afe663eb","amp;dn":"The+Hitcher+2007+720p+BRRip+H264+AAC-Rx%28Phoenix-RG%29","amp;tr":["udp%3A%2F%2Ftracker.openbittorrent.com%3A80","udp%3A%2F%2Fopen.demonii.com%3A1337","udp%3A%2F%2Ftracker.coppersurfer.tk%3A6969","udp%3A%2F%2Fexodus.desync.com%3A6969"],"infoHash":"b46d41dc8ce094a05126bd7cc57472e5afe663eb","infoHashBuffer":{"type":"Buffer","data":[180,109,65,220,140,224,148,160,81,38,189,124,197,116,114,229,175,230,99,235]},"announce":[],"urlList":[]}}